<svg xmlns="http://www.w3.org/2000/svg" viewBox="0 0 263 92" width="263" height="92"><g fill="#FFF"><path d="M92.83 46.468c-.366-.283-.85-.607-1.458-.972a15.55 15.55 0 0 0-2.005-1.002 16.52 16.52 0 0 0-2.31-.76 9.78 9.78 0 0 0-2.368-.303c-.447 0-.912.03-1.398.09-.486.063-.92.184-1.306.366a2.622 2.622 0 0 0-.97.79c-.265.344-.396.8-.396 1.366 0 1.378 1.478 2.39 4.434 3.037 1.215.243 2.42.557 3.615.94a11.47 11.47 0 0 1 3.218 1.61 7.972 7.972 0 0 1 2.31 2.613c.585 1.053.88 2.37.88 3.95 0 1.62-.314 3.056-.94 4.312a9.105 9.105 0 0 1-2.583 3.158c-1.094.85-2.38 1.5-3.857 1.944-1.48.446-3.088.67-4.83.67-1.822 0-3.34-.133-4.555-.397-1.215-.264-2.228-.577-3.037-.94-1.48-.76-2.44-2.238-2.497-3.857-.076-2.134 1.455-3.456 1.645-3.615.365.325.82.66 1.367 1.002a13.51 13.51 0 0 0 1.883.972c.708.303 1.468.556 2.278.758.81.203 1.64.304 2.492.304.525 0 1.072-.04 1.64-.12s1.063-.245 1.487-.487c.426-.244.78-.567 1.064-.972.283-.404.424-.93.424-1.58 0-1.173-.455-2.014-1.366-2.52-.912-.506-2.28-.94-4.1-1.306a23.472 23.472 0 0 1-3.403-.973 10.654 10.654 0 0 1-2.914-1.61 7.3 7.3 0 0 1-2.035-2.52c-.507-1.013-.76-2.248-.76-3.706 0-1.456.324-2.732.972-3.826s1.51-2.024 2.582-2.795c1.073-.77 2.318-1.347 3.736-1.732a16.84 16.84 0 0 1 4.435-.578c1.62 0 3.067.12 4.342.365 1.277.243 2.38.567 3.31.972.328.16 1.742.894 2.3 2.528.555 1.638.035 3.526-1.328 4.823zM142.43 46.555a7.32 7.32 0 0 0-.56-.414c-.236-.157-.76-.446-1.415-.735-.69-.304-1.5-.456-2.43-.456-1.255 0-2.31.364-3.158 1.093-.85.73-1.277 1.6-1.277 2.613v18.71h-8.26V38.632l.728-.122c.243-.04.525-.07.85-.09.323-.02.708-.03 1.154-.03 1.296 0 2.42.252 3.37.76.952.505 1.55 1.285 1.794 2.337a9.303 9.303 0 0 1 1.002-1.215c.426-.445.92-.85 1.488-1.215a8.8 8.8 0 0 1 1.914-.91 6.938 6.938 0 0 1 2.278-.366c1.407.26 2.164.92 2.494 1.264 1.588 1.655 1.672 4.72.028 7.51zM213.775 38.45h-8.504v-4.253c0-1.012-.162-1.832-.485-2.46-.325-.628-.75-1.125-1.276-1.488a4.543 4.543 0 0 0-1.763-.73 10.58 10.58 0 0 0-1.944-.183c-.325 0-.65.01-.972.03-.324.02-.627.052-.91.09l-.912.122v27.44c0 .89.04 1.78.12 2.67 0 7.28 7.096 8.4 7.096 8.4 2.768.344 5.408-.834 6.722-3 1.25-2.06.823-4.23.697-4.78-.4.205-.83.397-1.3.566a4.722 4.722 0 0 1-1.61.273c-2.31 0-3.464-1.418-3.464-4.253v-12.25h2.306c3.425 0 6.2-2.775 6.2-6.198zM194.006 45.8a11.28 11.28 0 0 0-2.156-4.1c-.994-1.194-2.28-2.147-3.857-2.855-1.58-.708-3.504-1.064-5.77-1.064-1.743 0-3.444.285-5.104.852a12.447 12.447 0 0 0-4.466 2.672c-1.316 1.215-2.37 2.745-3.158 4.586-.79 1.844-1.185 4.04-1.185 6.592 0 3.12.447 5.7 1.338 7.745.89 2.046 2.054 3.676 3.493 4.89a12.44 12.44 0 0 0 4.92 2.552 21.99 21.99 0 0 0 5.62.728c.596 0 1.12-.062 1.673-.1 2.207-.266 6.51-1.2 8.265-4.48 0 0 .693-3.223-1.636-4.88-.36.32-.757.67-1.195 1.046-.446.385-.97.74-1.58 1.063-.606.325-1.296.598-2.065.82-.77.223-1.66.334-2.672.334-2.633 0-4.556-.737-5.77-2.216-1.216-1.478-1.905-3.33-2.067-5.56h17.86c.04-.2.07-.474.09-.82l.062-1.062c.02-.365.03-.708.03-1.033v-.85c0-1.7-.225-3.32-.67-4.86zm-17.435 4.07c0-2.066.487-3.676 1.46-4.83.97-1.154 2.31-1.73 4.01-1.73 1.944 0 3.29.606 4.04 1.82.748 1.216 1.122 2.795 1.122 4.74h-10.63z"/><path d="M168.085 45.8a11.28 11.28 0 0 0-2.156-4.1c-.995-1.194-2.28-2.147-3.858-2.855-1.58-.708-3.504-1.064-5.77-1.064-1.743 0-3.444.285-5.104.852a12.447 12.447 0 0 0-4.465 2.672c-1.316 1.215-2.37 2.745-3.158 4.586-.79 1.844-1.185 4.04-1.185 6.592 0 3.12.446 5.7 1.337 7.745.89 2.046 2.054 3.676 3.493 4.89a12.44 12.44 0 0 0 4.92 2.552 21.99 21.99 0 0 0 5.62.728c.595 0 1.12-.062 1.672-.1 2.207-.266 6.51-1.2 8.265-4.48 0 0 .693-3.223-1.636-4.88-.358.32-.756.67-1.194 1.046-.446.385-.97.74-1.58 1.063-.606.325-1.296.598-2.065.82-.768.223-1.66.334-2.67.334-2.634 0-4.557-.737-5.772-2.216-1.215-1.478-1.904-3.33-2.066-5.56h17.86c.04-.2.07-.474.09-.82l.062-1.062c.02-.365.03-.708.03-1.033v-.85a17.49 17.49 0 0 0-.67-4.86zm-17.435 4.07c0-2.066.486-3.676 1.46-4.83.97-1.154 2.308-1.73 4.01-1.73 1.943 0 3.288.606 4.038 1.82.75 1.216 1.123 2.795 1.123 4.74h-10.63zM97.87 83.802c1.4 1.086 4.113 1.117 4.126 1.117 1.602 0 3.076-.278 3.986-.786-.9-1.447-1.355-3.69-1.38-6.698v-1.702h-.005V65.36c.08.122.283.345.607.67.325.324.79.647 1.398.97.607.325 1.346.617 2.217.88.87.265 1.89.397 3.067.397 1.375 0 2.784-.244 4.22-.73s2.735-1.325 3.89-2.52c1.153-1.195 2.095-2.815 2.823-4.86.73-2.046 1.094-4.648 1.094-7.806 0-2.712-.314-5-.94-6.864-.63-1.862-1.47-3.36-2.522-4.495-1.053-1.133-2.26-1.953-3.615-2.46a12.15 12.15 0 0 0-4.282-.76c-2.106 0-3.848.395-5.225 1.185-1.378.79-2.39 1.57-3.037 2.338-.244-1.052-.83-1.8-1.762-2.248-.93-.445-2.065-.668-3.4-.668-.447 0-.832.01-1.155.03a8.81 8.81 0 0 0-.85.09l-.73.123v37.102h-.006v4.053l.006.82s.042 2.085 1.474 3.197zm15.962-24.455c-.972 1.62-2.49 2.43-4.556 2.43-1.094 0-2.055-.222-2.885-.67-.83-.444-1.406-.828-1.73-1.152v-12.88c0-.768.333-1.477 1.002-2.126.668-.648 1.852-.972 3.553-.972 1.133 0 2.096.213 2.885.637a4.86 4.86 0 0 1 1.884 1.793c.465.77.8 1.68 1.002 2.733.202 1.055.303 2.188.303 3.403 0 2.916-.487 5.184-1.458 6.804zM245.05 33.21c1.215 0 2.257-.404 3.13-1.215.87-.81 1.305-1.863 1.305-3.16 0-1.296-.436-2.358-1.306-3.19-.872-.828-1.915-1.244-3.13-1.244-1.255 0-2.31.417-3.158 1.246-.85.83-1.276 1.894-1.276 3.19s.424 2.35 1.276 3.16c.85.81 1.902 1.214 3.158 1.214zm4.404 28.17c-.008-.276-.028-.523-.03-.813v-17.38c0-1.012-.163-1.832-.486-2.46-.325-.628-.75-1.114-1.277-1.46a4.8 4.8 0 0 0-1.608-.653v-.01c-.032-.008-.08-.014-.114-.022-.013-.003-.025-.008-.038-.01-.01-.003-.02-.002-.028-.004-.625-.155-1.476-.292-2.09-.292-.687 0-1.345.06-1.974.182-.117.023-.26.085-.38.114-.13.022-.23.042-.266.06v.02c-.45.117-.89.22-1.39.414.91 1.46 1.366 3.722 1.39 6.757v17.11c0 .28.033.516.052.77v.13s.005.14.033.362a5.388 5.388 0 0 0 .203.92c.163.566.4 1.03.716 1.39.15.187.32.366.52.522 1.4 1.086 4.114 1.117 4.127 1.117 1.602 0 3.076-.277 3.986-.785-.824-1.326-1.256-3.35-1.346-5.98zM261.57 60.68l-.002-.026v-1.696h-.003V29.133c0-1.012-.162-1.832-.485-2.46-.325-.628-.75-1.114-1.277-1.46a4.8 4.8 0 0 0-1.61-.653v-.01c-.03-.008-.078-.013-.11-.022-.015-.003-.027-.01-.04-.01-.01-.003-.02-.002-.03-.004-.624-.155-1.475-.292-2.087-.292-.688 0-1.346.06-1.974.182-.117.023-.26.085-.38.114-.13.022-.23.042-.266.06v.02c-.45.117-.89.22-1.39.414.91 1.46 1.366 3.722 1.39 6.757V62.93c0 .32.034.595.06.88v.02s.003.08.013.188c.02.178.04.352.07.516.03.156.073.33.127.516.167.605.417 1.098.753 1.473.147.18.312.352.508.503 1.4 1.086 4.113 1.117 4.126 1.117 1.602 0 3.076-.277 3.986-.785-.9-1.445-1.354-3.684-1.38-6.68zM237.703 60.318v-11.23c0-1.863-.203-3.493-.607-4.89-.405-1.397-1.084-2.226-2.035-3.158-.95-.93-2.185-1.62-3.704-2.066-1.518-.445-3.37-.668-5.56-.668l-10.7.14a6.177 6.177 0 0 0 6.208 6.176l3.217-.017c.357 0 .673.025.988.05 4.144.422 4.298 3.46 4.298 3.46v.844H228.5c-.466 0-.94.02-1.428.06a46.373 46.373 0 0 0-4.8.547c-1.74.284-3.36.8-4.86 1.55-1.498.75-2.743 1.77-3.735 3.067-.993 1.297-1.488 2.977-1.488 5.04 0 1.663.282 3.07.85 4.223.566 1.154 1.296 2.076 2.186 2.764a8.55 8.55 0 0 0 2.977 1.49 12.2 12.2 0 0 0 3.28.454c2.106 0 3.89-.325 5.347-.97 1.457-.65 2.632-1.438 3.523-2.37.202 1.053.678 1.863 1.428 2.43.75.566 1.853.85 3.312.85.688 0 1.346-.06 1.975-.182.626-.12 1.305-.324 2.035-.607-.933-1.498-1.4-3.828-1.4-6.987zm-7.776-.85c0 .325-.152.68-.455 1.063-.304.386-.72.74-1.246 1.064a7.494 7.494 0 0 1-1.822.79 7.73 7.73 0 0 1-2.186.304c-1.54 0-2.633-.395-3.28-1.184-.65-.79-.973-1.752-.973-2.886 0-1.012.244-1.843.73-2.49a5.24 5.24 0 0 1 1.883-1.55c.77-.383 1.65-.667 2.643-.85.992-.182 1.995-.313 3.007-.395.283-.04.567-.06.85-.06h.85v6.195z"/></g><path fill="#8DF3CF" d="M34.227 17.04c1.717.245 3.368.805 4.907 1.664l.105.055c.053.026 5.402 2.712 6.4 8.478a2.255 2.255 0 0 0 4.444-.768c-1.333-7.703-8.018-11.33-8.794-11.727a18.618 18.618 0 0 0-6.426-2.167c-6.978-.997-14.03 2.66-17.152 8.893-4.114 8.216-1.263 17.602 6.937 22.827l7.142 4.538 4.062 2.61c6.164 3.927 8.328 10.945 5.263 17.067-2.265 4.523-7.4 7.172-12.483 6.448a14.132 14.132 0 0 1-4.907-1.664l-.105-.055c-.054-.025-5.403-2.712-6.4-8.478a2.255 2.255 0 1 0-4.444.768c1.332 7.703 8.016 11.33 8.793 11.727a18.61 18.61 0 0 0 6.427 2.167c.766.11 1.532.163 2.295.163 6.183 0 12.078-3.507 14.856-9.056 4.137-8.26 1.312-17.673-6.864-22.884L34.23 45.04c-.003 0-.005 0-.006-.002-.002 0-.003-.002-.004-.003l-7.15-4.543c-6.18-3.936-8.37-10.93-5.327-17.004 2.265-4.523 7.396-7.174 12.484-6.448zm-23.54.682c-4.635 8.834-3.2 19.49 3.44 27.368.053.08.104.164.17.24 1.978 2.25 4.378 4.298 7.133 6.086l3.11 2.02 6.585 4.195.96.624c2.443 1.587 3.203 4.146 1.982 6.68-1.112 2.308-3.895 3.182-6.45 2.043-.01-.005-1.144-.533-1.98-1.235a2.254 2.254 0 1 0-2.898 3.454c1.29 1.083 2.826 1.8 3.018 1.888a10.28 10.28 0 0 0 4.188.912c3.452 0 6.616-1.85 8.185-5.106 2.215-4.597.772-9.588-3.59-12.42l-7.56-4.828-3.093-2.01c-2.073-1.197-4.556-3.58-4.562-3.586-6.92-6.6-8.785-16.337-4.643-24.23 3.332-6.35 9.936-10.467 16.823-10.49 3.05-.01 7.512.433 11.38 2.593l.11.056c.098.047 9.73 4.883 11.417 16.925a2.255 2.255 0 0 0 4.465-.624c-1.96-14-12.807-19.798-13.84-20.32-4.71-2.613-9.976-3.165-13.547-3.138-8.538.028-16.703 5.093-20.802 12.904zM5.72 46.626c.016.023.035.043.052.065 1.62 2.43 3.007 3.83 3.068 3.892 6.768 6.955 18.63 13.432 19.13 13.704a2.254 2.254 0 0 0 2.15-3.963c-.115-.064-11.754-6.418-18.066-12.904-.02-.02-2.054-2.094-3.918-5.525-1.208-2.248-2.99-6.19-3.48-10.62-.022-.185-2.11-18.627 15.02-26.715A2.254 2.254 0 1 0 17.75.483C7.27 5.433 3.044 13.697 1.345 19.76-.48 26.27.154 31.61.18 31.8c.723 6.557 3.77 12.02 5.045 14.065.307.493.495.76.495.76zM52.173 74.28c4.636-8.835 3.202-19.49-3.438-27.37-.054-.08-.104-.162-.17-.237-1.978-2.25-4.378-4.3-7.134-6.088l-3.11-2.018-6.584-4.197-.96-.623c-2.443-1.586-3.203-4.146-1.982-6.68 1.112-2.307 3.895-3.182 6.454-2.04.29.13 1.274.642 1.977 1.232a2.255 2.255 0 0 0 2.898-3.455c-1.29-1.083-2.828-1.8-3.02-1.888-4.857-2.165-10.176-.362-12.37 4.193-2.215 4.597-.772 9.588 3.59 12.42l7.56 4.828 3.093 2.008a31.325 31.325 0 0 1 4.544 3.566c.007.007.01.015.018.02 6.92 6.6 8.785 16.338 4.643 24.23-3.33 6.35-9.935 10.468-16.822 10.49h-.098c-3.054 0-7.457-.455-11.284-2.592l-.102-.054c-.397-.198-9.75-4.976-11.423-16.93a2.255 2.255 0 1 0-4.465.626c1.96 14 12.808 19.8 13.84 20.32 4.662 2.587 9.857 3.14 13.438 3.14l.11-.002c8.536-.026 16.7-5.09 20.8-12.9zM62.648 60.2c-.724-6.56-3.77-12.022-5.046-14.067-.307-.492-.56-.83-.59-.87-1.61-2.4-2.978-3.785-3.038-3.845-6.768-6.955-18.63-13.432-19.13-13.704a2.255 2.255 0 0 0-2.152 3.963c.117.063 11.756 6.417 18.068 12.902.02.02 2.056 2.095 3.92 5.53.027.047 3.04 5.298 3.492 10.614.016.186 2.11 18.628-15.02 26.716a2.254 2.254 0 0 0 1.925 4.077c10.483-4.95 14.708-13.215 16.407-19.277 1.823-6.51 1.19-11.848 1.164-12.04z"/></svg>